<svg id="Layer_1" data-name="Layer 1" xmlns="http://www.w3.org/2000/svg" viewBox="0 0 1845 976"><defs><style>.cls-1{fill:none;}.cls-2{fill:#5fa466;}.cls-2,.cls-3,.cls-4,.cls-5{fill-rule:evenodd;}.cls-3{fill:#fff;}.cls-4{fill:#717171;}.cls-5{fill:#3f6689;}.cls-6{font-size:48px;fill:#387097;font-family:HelveticaNeue-Thin, Helvetica Neue;}.cls-7{letter-spacing:-0.04em;}.cls-8{letter-spacing:-0.02em;}</style></defs><title>bridges2_placeholder</title><rect class="cls-1" width="1845" height="976"/><path class="cls-2" d="M629.58,27c-53.43,59-37.2,99.26-75.94,146.54C518.73,216.12,446.89,210,393.93,188.31c28.44-8.46,53.73-17.47,71.74-32.24,11.07-6,21.72-11.79,44-1.78-13.86-7.63-24.09-9-32.78-7.9,8.17-7.34,15.81-14.85,23.15-22.47,9.63-5.23,19-10.12,38.38-1.42-13.14-7.27-22.59-8.09-30.61-6.63,9.83-10.35,19.43-20.65,29.46-30.51,8.74-4.53,18-7.83,35.53.08-11.94-6.63-20.85-7.88-28.34-7,22.76-21.3,48.53-40,85.1-51.45Z" transform="translate(410.5 325)"/><path class="cls-2" d="M643.23,22.56c-111.48,10.62-147.78,108.71-237,128.39A145.72,145.72,0,0,1,373,154.37c-30.89-.15-19.89,30.49,11.56,23,7.06-1.7,13.8-3.58,20.25-5.67,110.9-36,125.87-128.44,238.38-149.18Z" transform="translate(410.5 325)"/><polygon class="cls-3" points="954.65 449.9 972.37 459.66 990.01 469.49 990.01 489.1 990.01 508.75 972.37 518.52 954.65 528.33 936.92 518.52 919.27 508.75 919.27 489.1 919.27 469.49 936.92 459.66 954.65 449.9 954.65 449.9"/><path class="cls-4" d="M544.15,115.84,565.72,128l21.59,12.16v48.61l-21.59,12.15L544.15,213l-21.57-12.13L501,188.74V140.13L522.58,128l21.57-12.13Zm0,0Zm0,4.32,19.51,11,19.48,11V186l-19.48,11-19.51,11-19.45-11-19.51-11V142.11l19.51-11,19.45-11Z" transform="translate(410.5 325)"/><path class="cls-5" d="M557.19,180a22,22,0,0,1-9.57,2.42c-6.22,0-11.2-1.8-15-5.44S527,168.6,527,162.75a18.71,18.71,0,0,1,5.88-14.27c3.89-3.59,8.74-5.41,14.75-5.41a18.2,18.2,0,0,1,9.47,2.37v7a13.47,13.47,0,0,0-9.9-3.86,13.8,13.8,0,0,0-10,3.81,14,14,0,0,0-4.12,10.4c0,4.35,1.35,7.83,4.1,10.45a13.86,13.86,0,0,0,10,3.77,14.39,14.39,0,0,0,10-4v7Z" transform="translate(410.5 325)"/><polygon class="cls-3" points="909.68 374.79 927.4 384.56 945.05 394.38 945.05 414 945.05 433.65 927.4 443.42 909.68 453.23 891.95 443.42 874.31 433.65 874.31 414 874.31 394.38 891.95 384.56 909.68 374.79 909.68 374.79"/><path class="cls-4" d="M499.18,40.72l21.57,12.13L542.36,65v48.61l-21.6,12.15-21.57,12.12-21.57-12.12-21.52-12.15V65l21.52-12.18,21.57-12.13Zm0,0Zm0,4.32L518.7,56l19.5,11v43.86l-19.5,11-19.51,10.95-19.45-10.95-19.5-11V67l19.5-11,19.45-11Z" transform="translate(410.5 325)"/><path class="cls-5" d="M512.21,104.92a22,22,0,0,1-9.57,2.42c-6.22,0-11.2-1.8-15-5.44S482,93.52,482,87.67a18.71,18.71,0,0,1,5.88-14.27c3.89-3.59,8.74-5.41,14.75-5.41a18.2,18.2,0,0,1,9.47,2.37v7a13.47,13.47,0,0,0-9.9-3.86,13.8,13.8,0,0,0-10,3.81,14,14,0,0,0-4.12,10.4c0,4.35,1.35,7.83,4.1,10.45a13.86,13.86,0,0,0,10,3.77,14.39,14.39,0,0,0,10-4v7Z" transform="translate(410.5 325)"/><polygon class="cls-3" points="864.04 449.8 881.74 459.56 899.39 469.39 899.39 489 899.39 508.65 881.74 518.42 864.04 528.23 846.3 518.42 828.65 508.65 828.65 489 828.65 469.39 846.3 459.56 864.04 449.8 864.04 449.8"/><path class="cls-4" d="M453.56,115.72l21.55,12.13L496.71,140v48.61l-21.6,12.15-21.55,12.13L432,200.78l-21.54-12.15V140L432,127.85l21.57-12.13Zm0,0Zm0,4.32,19.5,11,19.5,11v43.86l-19.5,11-19.5,11-19.45-11-19.51-11V142l19.51-11,19.45-11Z" transform="translate(410.5 325)"/><path class="cls-5" d="M466.58,179.91a22,22,0,0,1-9.57,2.42c-6.22,0-11.2-1.8-15-5.44s-5.65-8.39-5.65-14.24a18.71,18.71,0,0,1,5.88-14.27C446.18,144.78,451,143,457,143a18.2,18.2,0,0,1,9.47,2.37v7a13.47,13.47,0,0,0-9.9-3.86,13.8,13.8,0,0,0-10,3.81,14,14,0,0,0-4.12,10.4c0,4.35,1.35,7.83,4.1,10.45a13.86,13.86,0,0,0,10,3.77,14.39,14.39,0,0,0,10-4v7Z" transform="translate(410.5 325)"/><text class="cls-6" transform="translate(804.39 610.26)"><tspan class="cls-7">L</tspan><tspan class="cls-8" x="22.27" y="0">O</tspan><tspan x="56.98" y="0">ADING</tspan></text></svg>