<svg id="Layer_1" data-name="Layer 1" xmlns="http://www.w3.org/2000/svg" viewBox="0 0 496.79 327.93"><defs><style>.cls-1{fill:#60a467;}.cls-1,.cls-2,.cls-3,.cls-4{fill-rule:evenodd;}.cls-2{fill:#fff;}.cls-3{fill:#707070;}.cls-4{fill:#3f6588;}</style></defs><title>logo2</title><path class="cls-1" d="M2272.28,852.63c-92,101.6-64,170.9-130.75,252.3-60.1,73.33-183.79,62.86-275,25.46,49-14.56,92.51-30.08,123.52-55.51,19.05-10.42,37.39-20.29,75.78-3.07-23.87-13.14-41.48-15.52-56.44-13.59,14.06-12.63,27.22-25.57,39.86-38.68,16.58-9,32.77-17.43,66.08-2.44-22.62-12.52-38.9-13.93-52.7-11.41,16.92-17.82,33.45-35.56,50.72-52.53,15.05-7.8,31.07-13.48,61.18.14-20.55-11.41-35.89-13.57-48.79-12.09,39.18-36.67,83.55-68.91,146.51-88.57Z" transform="translate(-1799 -845)"/><path class="cls-1" d="M2295.79,845c-191.93,18.28-254.44,187.17-408,221.05a250.89,250.89,0,0,1-57.18,5.9c-53.18-.26-34.25,52.5,19.9,39.65,12.16-2.92,23.76-6.16,34.87-9.76,190.94-62,216.71-221.14,410.42-256.84Z" transform="translate(-1799 -845)"/><polygon class="cls-2" points="326.2 176.21 356.71 193.01 387.07 209.93 387.07 243.7 387.07 277.53 356.71 294.36 326.2 311.24 295.67 294.36 265.28 277.53 265.28 243.7 265.28 209.93 295.67 193.01 326.2 176.21 326.2 176.21"/><path class="cls-3" d="M2125.2,1005.6l37.14,20.89,37.17,20.94v83.69L2162.34,1152l-37.14,20.89L2088.07,1152,2051,1131.13v-83.69l37.08-20.94,37.14-20.89Zm0,0Zm0,7.44,33.59,18.87,33.54,18.93v75.52l-33.54,19-33.59,18.87-33.48-18.87-33.59-19v-75.52l33.59-18.93L2125.2,1013Z" transform="translate(-1799 -845)"/><path class="cls-4" d="M2147.66,1116.09a37.9,37.9,0,0,1-16.47,4.17c-10.72,0-19.28-3.09-25.74-9.37s-9.72-14.45-9.72-24.52,3.35-18.19,10.12-24.58c6.69-6.19,15.05-9.31,25.4-9.31a31.33,31.33,0,0,1,16.3,4.09v12c-4.48-4.46-10.21-6.64-17-6.64s-12.59,2.16-17.15,6.56c-4.71,4.63-7.09,10.61-7.09,17.91,0,7.49,2.32,13.48,7.06,18,4.48,4.31,10.26,6.5,17.18,6.5a24.77,24.77,0,0,0,17.15-6.84v12.06Z" transform="translate(-1799 -845)"/><polygon class="cls-2" points="248.78 46.88 279.28 63.71 309.68 80.63 309.68 114.4 309.68 148.23 279.28 165.06 248.78 181.94 218.25 165.06 187.88 148.23 187.88 114.4 187.88 80.63 218.25 63.71 248.78 46.88 248.78 46.88"/><path class="cls-3" d="M2047.78,876.27l37.14,20.89,37.2,21v83.69l-37.2,20.92-37.14,20.86-37.14-20.86-37.05-20.92V918.14l37.05-21,37.14-20.89Zm0,0Zm0,7.44,33.59,18.87,33.57,19v75.52l-33.57,19-33.59,18.84L2014.3,1016l-33.57-19V921.54l33.57-19,33.48-18.87Z" transform="translate(-1799 -845)"/><path class="cls-4" d="M2070.2,986.81a37.9,37.9,0,0,1-16.47,4.17c-10.72,0-19.28-3.09-25.74-9.37s-9.72-14.45-9.72-24.52,3.35-18.19,10.12-24.58c6.69-6.19,15.05-9.31,25.4-9.31a31.33,31.33,0,0,1,16.3,4.09v12c-4.48-4.46-10.21-6.64-17-6.64s-12.59,2.16-17.15,6.56c-4.71,4.63-7.09,10.61-7.09,17.91,0,7.49,2.32,13.48,7.06,18,4.48,4.31,10.26,6.5,17.18,6.5a24.77,24.77,0,0,0,17.15-6.84v12.06Z" transform="translate(-1799 -845)"/><polygon class="cls-2" points="170.19 176.04 200.67 192.84 231.06 209.76 231.06 243.53 231.06 277.36 200.67 294.19 170.19 311.07 139.66 294.19 109.27 277.36 109.27 243.53 109.27 209.76 139.66 192.84 170.19 176.04 170.19 176.04"/><path class="cls-3" d="M1969.22,1005.4l37.11,20.89,37.2,20.94v83.69l-37.2,20.92-37.11,20.89-37.14-20.89L1895,1130.93v-83.69l37.08-20.94,37.14-20.89Zm0,0Zm0,7.44,33.57,18.87,33.57,18.93v75.52l-33.57,19L1969.22,1164l-33.48-18.87-33.59-19v-75.52l33.59-18.93,33.48-18.87Z" transform="translate(-1799 -845)"/><path class="cls-4" d="M1991.65,1115.92a37.9,37.9,0,0,1-16.47,4.17c-10.72,0-19.28-3.09-25.74-9.37s-9.72-14.45-9.72-24.52,3.35-18.19,10.12-24.58c6.69-6.19,15.05-9.31,25.4-9.31a31.33,31.33,0,0,1,16.3,4.09v12c-4.48-4.46-10.21-6.64-17-6.64s-12.59,2.16-17.15,6.56c-4.71,4.63-7.09,10.61-7.09,17.91,0,7.49,2.32,13.48,7.06,18,4.48,4.31,10.26,6.5,17.18,6.5a24.77,24.77,0,0,0,17.15-6.84v12.06Z" transform="translate(-1799 -845)"/></svg>