<svg id="Layer_1" data-name="Layer 1" xmlns="http://www.w3.org/2000/svg" viewBox="0 0 1845 976"><defs><style>.cls-1{fill:none;}.cls-2{fill:#5fa466;}.cls-2,.cls-3,.cls-4,.cls-5{fill-rule:evenodd;}.cls-3{fill:#fff;}.cls-4{fill:#717171;}.cls-5{fill:#3f6689;}.cls-6{font-size:48px;fill:#387097;font-family:HelveticaNeue-Thin, Helvetica Neue;}.cls-7{letter-spacing:-0.04em;}.cls-8{letter-spacing:-0.02em;}</style></defs><title>element_placeholder</title><rect class="cls-1" width="1845" height="976"/><path class="cls-2" d="M396.42,212.64C357,256.22,369,285.95,340.34,320.86c-25.78,31.45-78.83,27-117.94,10.92,21-6.24,39.68-12.9,53-23.81,8.17-4.47,16-8.7,32.5-1.31-10.24-5.64-17.79-6.66-24.21-5.83,6-5.42,11.67-11,17.1-16.59,7.11-3.86,14.06-7.47,28.35-1-9.7-5.37-16.68-6-22.61-4.89,7.26-7.64,14.35-15.25,21.75-22.53,6.46-3.35,13.33-5.78,26.24.06-8.82-4.89-15.39-5.82-20.93-5.19,16.81-15.73,35.84-29.56,62.84-38Z" transform="translate(622.5 188)"/><path class="cls-2" d="M406.5,209.37c-82.32,7.84-109.14,80.28-175,94.81A107.62,107.62,0,0,1,207,306.72c-22.81-.11-14.69,22.52,8.54,17,5.22-1.25,10.19-2.64,15-4.19,81.9-26.6,93-94.85,176-110.17Z" transform="translate(622.5 188)"/><polygon class="cls-3" points="955.84 472.95 968.92 480.16 981.95 487.41 981.95 501.9 981.95 516.41 968.92 523.63 955.84 530.87 942.74 523.63 929.71 516.41 929.71 501.9 929.71 487.41 942.74 480.16 955.84 472.95 955.84 472.95"/><path class="cls-4" d="M333.34,278.26l15.93,9,15.94,9v35.9l-15.94,9-15.93,9-15.93-9-15.91-9V296.2l15.91-9,15.93-9Zm0,0Zm0,3.19,14.41,8.09,14.39,8.12v32.39l-14.39,8.13-14.41,8.1L319,338.18l-14.41-8.13V297.66L319,289.54l14.36-8.09Z" transform="translate(622.5 188)"/><path class="cls-5" d="M343,325.65a16.25,16.25,0,0,1-7.06,1.79c-4.6,0-8.27-1.33-11-4a15.15,15.15,0,0,1,.17-21.06,15.36,15.36,0,0,1,10.9-4,13.44,13.44,0,0,1,7,1.75v5.14a10,10,0,0,0-7.31-2.85,10.19,10.19,0,0,0-7.36,2.81,10.32,10.32,0,0,0-3,7.68,10,10,0,0,0,10.4,10.51,10.62,10.62,0,0,0,7.36-2.93v5.17Z" transform="translate(622.5 188)"/><polygon class="cls-3" points="922.63 417.48 935.71 424.7 948.75 431.95 948.75 446.44 948.75 460.95 935.71 468.17 922.63 475.41 909.53 468.17 896.51 460.95 896.51 446.44 896.51 431.95 909.53 424.7 922.63 417.48 922.63 417.48"/><path class="cls-4" d="M300.13,222.78l15.93,9,16,9v35.9l-16,9-15.93,8.95-15.93-8.95-15.89-9v-35.9l15.89-9,15.93-9Zm0,0Zm0,3.19,14.41,8.1,14.4,8.13v32.39l-14.4,8.13-14.41,8.08-14.36-8.08-14.4-8.13V242.2l14.4-8.13,14.36-8.1Z" transform="translate(622.5 188)"/><path class="cls-5" d="M309.75,270.2a16.25,16.25,0,0,1-7.06,1.79c-4.6,0-8.27-1.33-11-4a15.15,15.15,0,0,1,.17-21.06,15.36,15.36,0,0,1,10.9-4,13.44,13.44,0,0,1,7,1.75v5.14a10,10,0,0,0-7.31-2.85,10.19,10.19,0,0,0-7.36,2.81,10.32,10.32,0,0,0-3,7.68A10,10,0,0,0,302.39,268a10.62,10.62,0,0,0,7.36-2.93v5.17Z" transform="translate(622.5 188)"/><polygon class="cls-3" points="888.92 472.88 901.99 480.08 915.03 487.34 915.03 501.83 915.03 516.34 901.99 523.55 888.92 530.8 875.82 523.55 862.79 516.34 862.79 501.83 862.79 487.34 875.82 480.08 888.92 472.88 888.92 472.88"/><path class="cls-4" d="M266.43,278.17l15.92,9,16,9V332l-16,9-15.92,9-15.93-9-15.91-9v-35.9l15.91-9,15.93-9Zm0,0Zm0,3.19,14.4,8.09,14.4,8.12V330l-14.4,8.13-14.4,8.1-14.36-8.1L237.66,330V297.57l14.41-8.12,14.36-8.09Z" transform="translate(622.5 188)"/><path class="cls-5" d="M276.05,325.57a16.25,16.25,0,0,1-7.07,1.79c-4.6,0-8.27-1.33-11-4a15.15,15.15,0,0,1,.17-21.06,15.36,15.36,0,0,1,10.9-4,13.44,13.44,0,0,1,7,1.75v5.14a10,10,0,0,0-7.31-2.85,10.19,10.19,0,0,0-7.36,2.81,10.32,10.32,0,0,0-3,7.68,10,10,0,0,0,10.4,10.51,10.62,10.62,0,0,0,7.36-2.93v5.17Z" transform="translate(622.5 188)"/><text class="cls-6" transform="translate(823.02 589.67)"><tspan class="cls-7">L</tspan><tspan class="cls-8" x="22.27" y="0">O</tspan><tspan x="56.98" y="0">ADING</tspan></text></svg>